<?xml version="1.0" encoding="UTF-8" standalone="no"?>
<!-- Created with Inkscape (http://www.inkscape.org/) -->

<svg
   xmlns:dc="http://purl.org/dc/elements/1.1/"
   xmlns:cc="http://creativecommons.org/ns#"
   xmlns:rdf="http://www.w3.org/1999/02/22-rdf-syntax-ns#"
   xmlns:svg="http://www.w3.org/2000/svg"
   xmlns="http://www.w3.org/2000/svg"
   xmlns:sodipodi="http://sodipodi.sourceforge.net/DTD/sodipodi-0.dtd"
   xmlns:inkscape="http://www.inkscape.org/namespaces/inkscape"
   width="16mm"
   height="16mm"
   viewBox="0 0 16 16"
   version="1.1"
   id="svg8"
   inkscape:version="0.92.2 (5c3e80d, 2017-08-06)"
   sodipodi:docname="2.svg">
  <defs
     id="defs2">
    <pattern
       y="0"
       x="0"
       height="6"
       width="6"
       patternUnits="userSpaceOnUse"
       id="EMFhbasepattern" />
  </defs>
  <sodipodi:namedview
     id="base"
     pagecolor="#ffffff"
     bordercolor="#666666"
     borderopacity="1.0"
     inkscape:pageopacity="0.0"
     inkscape:pageshadow="2"
     inkscape:zoom="5.6"
     inkscape:cx="41.300413"
     inkscape:cy="13.027816"
     inkscape:document-units="mm"
     inkscape:current-layer="layer1"
     showgrid="false"
     inkscape:window-width="1920"
     inkscape:window-height="1057"
     inkscape:window-x="1912"
     inkscape:window-y="-8"
     inkscape:window-maximized="1" />
  <metadata
     id="metadata5">
    <rdf:RDF>
      <cc:Work
         rdf:about="">
        <dc:format>image/svg+xml</dc:format>
        <dc:type
           rdf:resource="http://purl.org/dc/dcmitype/StillImage" />
        <dc:title></dc:title>
      </cc:Work>
    </rdf:RDF>
  </metadata>
  <g
     inkscape:label="Layer 1"
     inkscape:groupmode="layer"
     id="layer1"
     transform="translate(0,-281)">
    <g
       id="g70"
       transform="translate(18.536085,10.095609)">
      <path
         inkscape:connector-curvature="0"
         style="fill:#116ff2;fill-opacity:1;fill-rule:evenodd;stroke:none;stroke-width:0.26458332"
         d="m -11.844992,278.42331 c 0.0635,0.0635 0.105833,0.127 0.169332,0.21167 0.190499,0.25399 0.0635,0.21166 0.380998,0.35983 0.338664,0.14816 0.804327,0.55033 1.058325,0.38099 0.0635,-0.0423 0.126999,-0.14816 0.105833,-0.254 -0.02117,-0.19049 -0.232832,-0.25399 -0.402164,-0.33866 -0.169332,-0.10583 -0.317498,-0.1905 -0.48683,-0.29633 -0.04233,-0.0212 -0.0635,-0.0423 -0.105832,-0.0635 -0.04233,-0.0212 -0.04233,-0.0635 -0.0635,-0.127 -0.169332,-0.3175 -0.48683,-1.05832 -0.613829,-1.29116 -0.105832,-0.16933 -0.211665,-0.27516 -0.465663,-0.27516 -0.296331,0 -0.48683,-0.0635 -0.550329,0.21166 -0.04233,0.21167 -0.08467,0.40217 -0.148166,0.61383 -0.08467,0.42333 -0.169332,0.8255 -0.275165,1.24883 -0.04233,0.254 -0.08467,0.38099 0,0.65616 0.04233,0.14816 0.169333,0.35983 0.253999,0.48683 0.211665,0.29633 0.402163,0.61383 0.592662,0.93133 l 0.592662,0.91016 c 0.126999,0.21166 0.48683,0.76199 0.613829,0.91016 0.105832,0.12699 0.253998,0.29633 0.507996,0.23283 0.211665,-0.0847 0.317498,-0.23283 0.275165,-0.48683 -0.04233,-0.1905 -0.190499,-0.381 -0.253998,-0.508 l -0.867827,-1.41816 c -0.190499,-0.31749 -0.380997,-0.63499 -0.592663,-0.95249 -0.04233,-0.0847 -0.04233,-0.0847 0.02117,-0.27516 0.0635,-0.23283 0.190499,-0.67733 0.253998,-0.86783 z"
         id="path31" />
      <path
         inkscape:connector-curvature="0"
         style="fill:#116ff2;fill-opacity:1;fill-rule:evenodd;stroke:none;stroke-width:0.26458332"
         d="m -7.9503538,279.8203 c 0.021166,0.0635 0.1693321,0.29633 0.2116651,0.33866 0.021166,0 0.063499,0.0212 0.084666,0.0423 0.2116651,0.127 0.4233304,0.21166 0.6561619,0.31749 0.1269989,0.0423 0.3174976,0.127 0.4021638,0 0.1269989,-0.16933 0.021166,-0.27516 -0.1269992,-0.33866 -0.126999,-0.0635 -0.2328315,-0.127 -0.3598307,-0.1905 -0.4233302,-0.21166 -0.3386641,-0.127 -0.4444966,-0.381 -0.021167,-0.0635 -0.063499,-0.12699 -0.084666,-0.19049 -0.063499,-0.14817 -0.2751646,-0.61383 -0.3809971,-0.71967 -0.1058326,-0.12699 -0.2539982,-0.10583 -0.4444968,-0.10583 -0.2116651,0 -0.2116651,0.10583 -0.2539982,0.29633 -0.063499,0.29633 -0.1269989,0.59267 -0.2116651,0.889 -0.084666,0.42333 -0.1269989,0.55033 0.1058326,0.86782 0.4233304,0.65617 0.8466605,1.35466 1.2911571,2.01082 0.042333,0.0847 0.1693323,0.23283 0.2751648,0.254 0.1481654,0.0635 0.3174976,-0.0635 0.338664,-0.16933 0.063499,-0.16933 -0.021166,-0.3175 -0.084666,-0.42333 l -1.0583254,-1.69332 c -0.1269989,-0.21167 -0.1269989,-0.127 -0.0635,-0.381 0.021166,-0.0847 0.1058326,-0.381 0.1481656,-0.42333 z"
         id="path33" />
      <path
         inkscape:connector-curvature="0"
         style="fill:#116ff2;fill-opacity:1;fill-rule:evenodd;stroke:none;stroke-width:0.26458332"
         d="m -13.749977,276.56066 c -0.127,0.0423 -0.169333,0.127 -0.211666,0.27516 l -0.338664,1.12183 c -0.04233,0.14816 -0.232831,0.65616 -0.211665,0.78316 0,0.14816 0.08467,0.23283 0.211665,0.27516 0.105833,0.0212 0.296331,0.0635 0.402164,0.0847 0.317498,0.0212 0.317498,-0.3175 0.380997,-0.59266 0.04233,-0.127 0.359831,-1.50283 0.359831,-1.58749 0.02117,-0.14817 -0.08467,-0.254 -0.190499,-0.29633 -0.08467,-0.0212 -0.317497,-0.0847 -0.402163,-0.0635 z"
         id="path35" />
      <path
         inkscape:connector-curvature="0"
         style="fill:#116ff2;fill-opacity:1;fill-rule:evenodd;stroke:none;stroke-width:0.26458332"
         d="m -13.305481,280.22246 c -0.0635,0.0847 -0.190498,0.74083 -0.253998,0.86783 -0.08467,0.14817 -0.84666,1.16416 -0.931326,1.35466 -0.04233,0.0847 -0.04233,0.14816 -0.04233,0.254 0,0.14816 0.232831,0.40216 0.529162,0.19049 0.08467,-0.0635 0.190499,-0.19049 0.253999,-0.27516 l 0.507996,-0.65616 c 0.232831,-0.3175 0.253998,-0.29633 0.444496,-0.6985 0.105833,-0.23283 0.105833,-0.16933 -0.04233,-0.35983 l -0.338664,-0.50799 c -0.04233,-0.0423 -0.08467,-0.127 -0.126999,-0.16934 z"
         id="path37" />
      <path
         inkscape:connector-curvature="0"
         style="fill:#116ff2;fill-opacity:1;fill-rule:evenodd;stroke:none;stroke-width:0.26458332"
         d="m -11.993157,274.84617 c -0.380997,0.0635 -0.719662,0.42333 -0.656162,0.88899 0.0635,0.40217 0.42333,0.74083 0.888993,0.65617 0.380998,-0.0423 0.719662,-0.40217 0.656162,-0.86783 -0.04233,-0.40217 -0.42333,-0.74083 -0.888993,-0.67733 z"
         id="path39" />
      <path
         inkscape:connector-curvature="0"
         style="fill:#116ff2;fill-opacity:1;fill-rule:evenodd;stroke:none;stroke-width:0.26458332"
         d="m -8.0350199,277.04749 c -0.3174976,0.0423 -0.5926622,0.31749 -0.5503294,0.69849 0.042333,0.3175 0.3386643,0.59266 0.7196614,0.52916 0.2963312,-0.0423 0.5714958,-0.33866 0.529163,-0.69849 -0.0635,-0.3175 -0.3386643,-0.59266 -0.698495,-0.52916 z"
         id="path41" />
      <path
         inkscape:connector-curvature="0"
         style="fill:#116ff2;fill-opacity:1;fill-rule:evenodd;stroke:none;stroke-width:0.26458332"
         d="m -9.2415109,278.31748 c -0.1058325,0.0212 -0.1481656,0.0847 -0.169332,0.1905 l -0.4233304,1.37582 c -0.042333,0.23283 0.2539981,0.23283 0.4444968,0.27516 0.2751645,0.0423 0.2963312,-0.25399 0.3174976,-0.40216 l 0.2116651,-0.86783 c 0.021167,-0.0847 0.063499,-0.23283 0.063499,-0.29633 0.021167,-0.23283 -0.4021635,-0.27516 -0.4444961,-0.27516 z"
         id="path43" />
      <path
         inkscape:connector-curvature="0"
         style="fill:#116ff2;fill-opacity:1;fill-rule:evenodd;stroke:none;stroke-width:0.26458332"
         d="m -8.9240133,280.92096 c -0.021166,0.0212 -0.084666,0.27516 -0.1058325,0.3175 -0.021166,0.0847 -0.063499,0.25399 -0.084666,0.31749 -0.042333,0.0847 -0.5714957,0.80433 -0.6561616,0.99483 -0.084666,0.14817 -0.0635,0.23283 0.042333,0.29633 0.2116654,0.1905 0.3386643,0.0212 0.4868299,-0.16933 l 0.3598307,-0.48683 c 0.1058325,-0.14817 0.338664,-0.46566 0.3809971,-0.65616 0.021167,-0.0635 -0.042333,-0.10584 -0.063499,-0.127 z"
         id="path45" />
    </g>
  </g>
</svg>
