<?xml version="1.0" encoding="UTF-8" standalone="no"?>
<!-- Created with Inkscape (http://www.inkscape.org/) -->

<svg
   xmlns:dc="http://purl.org/dc/elements/1.1/"
   xmlns:cc="http://creativecommons.org/ns#"
   xmlns:rdf="http://www.w3.org/1999/02/22-rdf-syntax-ns#"
   xmlns:svg="http://www.w3.org/2000/svg"
   xmlns="http://www.w3.org/2000/svg"
   xmlns:sodipodi="http://sodipodi.sourceforge.net/DTD/sodipodi-0.dtd"
   xmlns:inkscape="http://www.inkscape.org/namespaces/inkscape"
   width="16mm"
   height="16mm"
   viewBox="0 0 16 16"
   version="1.1"
   id="svg8"
   inkscape:version="0.92.2 (5c3e80d, 2017-08-06)"
   sodipodi:docname="4.svg">
  <defs
     id="defs2">
    <pattern
       y="0"
       x="0"
       height="6"
       width="6"
       patternUnits="userSpaceOnUse"
       id="EMFhbasepattern" />
    <pattern
       y="0"
       x="0"
       height="6"
       width="6"
       patternUnits="userSpaceOnUse"
       id="EMFhbasepattern-6" />
  </defs>
  <sodipodi:namedview
     id="base"
     pagecolor="#ffffff"
     bordercolor="#666666"
     borderopacity="1.0"
     inkscape:pageopacity="0.0"
     inkscape:pageshadow="2"
     inkscape:zoom="5.6"
     inkscape:cx="19.246842"
     inkscape:cy="13.027816"
     inkscape:document-units="mm"
     inkscape:current-layer="layer1"
     showgrid="false"
     inkscape:window-width="1920"
     inkscape:window-height="1057"
     inkscape:window-x="1912"
     inkscape:window-y="-8"
     inkscape:window-maximized="1" />
  <metadata
     id="metadata5">
    <rdf:RDF>
      <cc:Work
         rdf:about="">
        <dc:format>image/svg+xml</dc:format>
        <dc:type
           rdf:resource="http://purl.org/dc/dcmitype/StillImage" />
        <dc:title></dc:title>
      </cc:Work>
    </rdf:RDF>
  </metadata>
  <g
     inkscape:label="Layer 1"
     inkscape:groupmode="layer"
     id="layer1"
     transform="translate(0,-281)">
    <g
       id="g118"
       transform="translate(-3.2920386,-1.149185)">
      <path
         inkscape:connector-curvature="0"
         id="path496"
         style="fill:#6bdc21;fill-opacity:1;fill-rule:evenodd;stroke:none;stroke-width:0.35277778"
         d="m 8.7628631,286.93587 0.207575,0.77371 c 0.114723,0 0.616303,-0.14803 0.759001,-0.18461 0.2531181,-0.065 0.4842229,-0.136 0.7434089,-0.20031 0.135819,-0.0336 0.234597,-0.0864 0.376096,-0.0408 0.149405,0.0481 0.426895,0.2771 0.564195,0.3799 0.0631,0.0473 0.24173,0.17022 0.27503,0.21573 -0.0333,0.0498 -0.0479,0.0592 -0.0942,0.0945 -0.0439,0.0334 -0.0697,0.0604 -0.11338,0.0942 -0.0747,0.0577 -0.14711,0.12929 -0.2238,0.19138 -0.0766,0.062 -0.142,0.11342 -0.21502,0.18129 -0.178401,0.16591 -0.466868,0.37271 -0.660578,0.56621 -0.325402,0.32519 -0.330024,0.71021 -0.07832,1.08811 0.0992,0.14898 0.193605,0.27319 0.298697,0.4185 l 0.595911,0.83837 -2.6060029,-0.002 c -0.1905,-0.001 -0.1304931,-0.008 -0.1304931,0.7566 0,0.0435 0.01309,0.0566 0.05659,0.0566 h 2.793116 c 0.20239,0 0.4415,-0.0996 0.5557,-0.23699 0.11359,-0.13692 0.0673,-0.0425 0.16199,-0.23432 0.22712,-0.45931 -0.15501,-0.95109 -0.36699,-1.46459 -0.0292,-0.0705 -0.0581,-0.11712 -0.0838,-0.18052 -0.0278,-0.0684 -0.0627,-0.11969 -0.0781,-0.18609 0.049,-0.0732 0.21149,-0.18891 0.29379,-0.2535 0.21128,-0.16598 0.77618,-0.64181 0.93289,-0.74669 0.0428,0.1839 0.0616,0.39098 0.13201,0.5474 0.13458,0.29919 0.41179,0.57958 0.721,0.67561 0.0824,0.0255 0.1874,0.0571 0.27919,0.0604 l 1.41559,0.0188 c 0.0435,0 0.0566,-0.0131 0.0566,-0.0566 0,-0.85521 0.0577,-0.7782 -0.16919,-0.77449 l -1.17161,0.002 c -0.13599,-0.003 -0.26342,-0.0732 -0.32099,-0.15088 -0.21573,-0.29133 -0.0172,-0.84402 -0.59471,-1.29262 -0.35751,-0.2776 -0.70761,-0.53029 -1.06779,-0.80048 -0.0936,-0.0702 -0.17322,-0.13 -0.26963,-0.20232 -0.31119,-0.23319 -0.5715,-0.4421 -1.029899,-0.4421 -0.167075,0 -0.7848949,0.1778 -0.9746889,0.23311 l -0.969187,0.2576 z" />
      <path
         inkscape:connector-curvature="0"
         id="path498"
         style="fill:#6bdc21;fill-opacity:1;fill-rule:evenodd;stroke:none;stroke-width:0.35277778"
         d="m 12.895939,286.91696 c 0,0.23138 0.0982,0.42061 0.21022,0.54469 0.004,0.004 0.0142,0.0158 0.0181,0.0197 l 0.078,0.073 c 0.22009,0.1978 0.61559,0.23431 0.87499,0.0909 0.78101,-0.43191 0.44062,-1.52982 -0.36971,-1.52982 -0.21918,0 -0.41219,0.0904 -0.56427,0.2372 l -0.0911,0.0977 c -0.0792,0.0974 -0.15621,0.32519 -0.15621,0.46659" />
      <path
         inkscape:connector-curvature="0"
         id="path500"
         style="fill:#6bdc21;fill-opacity:1;fill-rule:evenodd;stroke:none;stroke-width:0.35277778"
         d="m 8.9704381,293.72998 c 0.04043,0.0551 0.5582,0.37179 0.67952,0.45296 0.06481,-0.0969 0.205388,-0.20397 0.287585,-0.29739 0.04082,-0.0463 0.04791,-0.0667 0.09412,-0.11349 l 0.78359,-0.80168 c 0.100789,-0.10062 0.334606,-0.31112 0.401106,-0.41053 l -1.058507,-0.002 c -0.141888,0.002 -0.105481,0.0427 -0.3522136,0.28938 -0.150777,0.15081 -0.788987,0.79502 -0.835201,0.88233" />
      <path
         inkscape:connector-curvature="0"
         id="path502"
         style="fill:#6bdc21;fill-opacity:1;fill-rule:evenodd;stroke:none;stroke-width:0.35277778"
         d="m 7.2530451,288.18145 c 0,0.2322 -0.03348,0.3585 0.05662,0.3585 H 9.951865 c 0.04748,0 0.241582,-0.15988 0.294393,-0.19629 l 0.210996,-0.1476 c 0.055,-0.043 0.0423,-0.0203 0.06078,-0.0712 -1.0033709,0 -2.1150789,0.0147 -3.1150989,-0.001 -0.08008,-10e-4 -0.149895,-0.0186 -0.149895,0.0578" />
      <path
         inkscape:connector-curvature="0"
         id="path504"
         style="fill:#6bdc21;fill-opacity:1;fill-rule:evenodd;stroke:none;stroke-width:0.35277778"
         d="m 7.2530451,289.29496 c 0,0.0434 0.01319,0.0566 0.05662,0.0566 h 2.170395 c 0.07811,0 0.05539,-0.11349 0.08378,-0.19929 0.02131,-0.0642 0.06011,-0.16182 0.08611,-0.2159 h -2.396913 z" />
      <path
         inkscape:connector-curvature="0"
         id="path506"
         style="fill:#6bdc21;fill-opacity:1;fill-rule:evenodd;stroke:none;stroke-width:0.35277778"
         d="m 7.2530451,289.78557 v 0.3586 h 2.340222 l -0.0641,-0.2189 c -0.01722,-0.0778 -0.0133,-0.19632 -0.08692,-0.19632 h -2.132577 c -0.04343,0 -0.05662,0.0132 -0.05662,0.0566" />
    </g>
  </g>
</svg>
