<?xml version="1.0" encoding="UTF-8" standalone="no"?>
<!-- Created with Inkscape (http://www.inkscape.org/) -->

<svg
   xmlns:dc="http://purl.org/dc/elements/1.1/"
   xmlns:cc="http://creativecommons.org/ns#"
   xmlns:rdf="http://www.w3.org/1999/02/22-rdf-syntax-ns#"
   xmlns:svg="http://www.w3.org/2000/svg"
   xmlns="http://www.w3.org/2000/svg"
   xmlns:sodipodi="http://sodipodi.sourceforge.net/DTD/sodipodi-0.dtd"
   xmlns:inkscape="http://www.inkscape.org/namespaces/inkscape"
   width="16mm"
   height="16mm"
   viewBox="0 0 16 16"
   version="1.1"
   id="svg8"
   inkscape:version="0.92.2 (5c3e80d, 2017-08-06)"
   sodipodi:docname="5.svg">
  <defs
     id="defs2">
    <pattern
       y="0"
       x="0"
       height="6"
       width="6"
       patternUnits="userSpaceOnUse"
       id="EMFhbasepattern" />
    <pattern
       y="0"
       x="0"
       height="6"
       width="6"
       patternUnits="userSpaceOnUse"
       id="EMFhbasepattern-6" />
  </defs>
  <sodipodi:namedview
     id="base"
     pagecolor="#ffffff"
     bordercolor="#666666"
     borderopacity="1.0"
     inkscape:pageopacity="0.0"
     inkscape:pageshadow="2"
     inkscape:zoom="5.6"
     inkscape:cx="19.246842"
     inkscape:cy="13.027816"
     inkscape:document-units="mm"
     inkscape:current-layer="layer1"
     showgrid="false"
     inkscape:window-width="1920"
     inkscape:window-height="1057"
     inkscape:window-x="1912"
     inkscape:window-y="-8"
     inkscape:window-maximized="1" />
  <metadata
     id="metadata5">
    <rdf:RDF>
      <cc:Work
         rdf:about="">
        <dc:format>image/svg+xml</dc:format>
        <dc:type
           rdf:resource="http://purl.org/dc/dcmitype/StillImage" />
        <dc:title></dc:title>
      </cc:Work>
    </rdf:RDF>
  </metadata>
  <g
     inkscape:label="Layer 1"
     inkscape:groupmode="layer"
     id="layer1"
     transform="translate(0,-281)">
    <g
       id="g94"
       transform="translate(4.9289435,-5.590406)">
      <path
         inkscape:connector-curvature="0"
         id="path442"
         style="fill:#13ed6b;fill-opacity:1;fill-rule:evenodd;stroke:none;stroke-width:0.35277778"
         d="m 1.6394201,291.93246 c 0.0721,-0.019 4.5713999,-0.006 4.63271,-0.006 0.1882801,0 0.4282702,-0.0573 0.4357902,0.14792 0.007,0.18631 -2.101e-4,0.38778 -2.101e-4,0.57581 v 2.89927 c 0,0.205 0.0392,0.447 -0.0921,0.48351 -0.1013199,0.0281 -0.9756101,0.006 -1.1535101,0.006 H 1.9758802 c -0.2570701,0 -0.4318001,0.0475 -0.4384001,-0.14802 -0.006,-0.1868 3.493e-4,-0.38739 3.493e-4,-0.57577 v -2.89931 c 0,-0.2402 -0.042,-0.44541 0.1015,-0.4832 z m 1.0705,-0.47491 c 0.1061899,0.0143 1.0626,0.013 1.1451899,-0.004 0.3207102,-0.0674 0.5916102,-0.2159 0.6496002,-0.0406 0.0185,0.0559 0.0456,0.17452 0.0557,0.23219 -0.97071,-0.004 -1.9422899,-0.001 -2.9131,-0.001 -0.3786,-1.7e-4 -0.3719,-0.0349 -0.3719,0.34961 l -0.001,5.43471 c -10e-5,0.1166 -0.0138,0.23711 0.10467,0.25591 0.0775,0.0122 4.9726198,0.004 5.0809199,0.004 0.4292901,0 0.5137904,0.0538 0.5126902,-0.2122 l -3.439e-4,-5.071 c 0,-0.8104 0.0704,-0.76059 -0.32452,-0.76059 -0.5890699,0 -1.2334901,0.0151 -1.8078799,-0.001 -0.019806,-0.10739 -0.052006,-0.22578 -0.079306,-0.33228 -0.0265,-0.10312 -0.0409,-0.25912 -0.11391,-0.29782 -0.0835,-0.0443 -0.5348801,0.0973 -0.6502699,0.1252 -0.21541,0.0522 -0.4327202,0.107 -0.6489001,0.16052 -0.10951,0.0271 -0.2183001,0.055 -0.3294999,0.0826 -0.0694,0.0173 -0.26141,0.0736 -0.30801,0.077" />
      <path
         inkscape:connector-curvature="0"
         id="path444"
         style="fill:#13ed6b;fill-opacity:1;fill-rule:evenodd;stroke:none;stroke-width:0.35277778"
         d="m 5.2181002,293.25986 c -0.0365,0.0205 -0.0438,0.0403 -0.0746,0.0815 -0.024699,0.0331 -0.0394,0.0502 -0.0675,0.0849 l -0.64907,0.82987 c -0.38661,0.47682 -0.77703,1.01431 -1.16301,1.49003 -0.0303,0.0374 -0.1119002,0.13469 -0.1268902,0.17138 l 3.4484702,-0.005 c -0.004,-0.33521 -3.44e-4,-0.67283 -3.44e-4,-1.00831 1.101e-4,-0.252 0.009,-0.14488 -0.1601999,-0.3403 l -1.2068161,-1.30389 z" />
      <path
         inkscape:connector-curvature="0"
         id="path446"
         style="fill:#13ed6b;fill-opacity:1;fill-rule:evenodd;stroke:none;stroke-width:0.35277778"
         d="m 1.0719001,296.36995 c -0.45496999,0.0746 -0.60006999,0.25411 -0.66868999,-0.0333 -0.0608,-0.25421 -0.12379,-0.50821 -0.18739,-0.7631 -0.12831003,-0.51382 -0.25019003,-1.0234 -0.37881002,-1.53599 -0.0646,-0.25749 -0.12369001,-0.51252 -0.19001001,-0.77241 -0.0325,-0.1276 -0.0631,-0.2564 -0.0946,-0.3859 -0.0287,-0.11811 -0.10820001,-0.30251 -0.001,-0.36491 0.0478,-0.0279 1.35989003,-0.3434 1.52111002,-0.37949 l -0.002,-0.2806 c -0.17578999,0.0299 -0.38579999,0.0947 -0.56299999,0.13752 l -1.12959003,0.27858 c -0.10061,0.0251 -0.208,0.0322 -0.21301,0.14489 -0.003,0.0758 1.05449003,4.30579 1.16780003,4.76663 0.0466,0.18937 0.0937,0.37638 0.13871,0.56497 0.0665,0.27863 0.0689,0.46249 0.25238,0.4239 0.33979999,-0.0713 0.79720999,-0.21749 1.10691009,-0.27859 -0.2895901,-0.0319 -0.7620001,0.1325 -0.7584001,-0.3822 0.003,-0.37839 0.004,-0.76179 -2.1e-4,-1.14" />
      <path
         inkscape:connector-curvature="0"
         id="path448"
         style="fill:#13ed6b;fill-opacity:1;fill-rule:evenodd;stroke:none;stroke-width:0.35277778"
         d="m 2.9879101,295.91536 c 0.0191,-0.0451 0.4118001,-0.5316 0.4554,-0.5884 0.077,-0.10022 0.1507101,-0.19791 0.2313901,-0.297 L 3.8976201,294.73976 3.6312,294.49285 c -0.0264,-0.0228 -0.0383,-0.042 -0.0635,-0.065 l -0.1981898,-0.17639 -0.1780101,0.20129 c -0.1538801,0.1651 -0.3800801,0.45802 -0.5344901,0.62802 -0.0364,0.0402 -0.0613,0.0654 -0.094,0.10488 -0.0275,0.0333 -0.0594,0.0685 -0.0853,0.1028 -0.0205,0.0271 -0.028,0.0311 -0.0496,0.0559 -0.017899,0.0203 -0.0225,0.0314 -0.0417,0.0525 l -0.3524199,0.41049 c -0.0215,0.0229 -0.024,0.0267 -0.0429,0.0507 l -0.043,0.0587 1.0398098,-10e-4 z" />
      <path
         inkscape:connector-curvature="0"
         id="path450"
         style="fill:#13ed6b;fill-opacity:1;fill-rule:evenodd;stroke:none;stroke-width:0.35277778"
         d="m 2.9255002,292.52735 c -0.30959,0.039 -0.5694802,0.3169 -0.5236901,0.6736 0.0391,0.30511 0.3185901,0.56469 0.6774,0.51869 0.30099,-0.0387 0.5656101,-0.32269 0.5141,-0.6809 -0.0431,-0.30028 -0.3209899,-0.5551 -0.6678099,-0.51139" />
    </g>
  </g>
</svg>
