<?xml version="1.0" encoding="UTF-8" standalone="no"?>
<!-- Created with Inkscape (http://www.inkscape.org/) -->

<svg
   xmlns:dc="http://purl.org/dc/elements/1.1/"
   xmlns:cc="http://creativecommons.org/ns#"
   xmlns:rdf="http://www.w3.org/1999/02/22-rdf-syntax-ns#"
   xmlns:svg="http://www.w3.org/2000/svg"
   xmlns="http://www.w3.org/2000/svg"
   xmlns:sodipodi="http://sodipodi.sourceforge.net/DTD/sodipodi-0.dtd"
   xmlns:inkscape="http://www.inkscape.org/namespaces/inkscape"
   width="16mm"
   height="16mm"
   viewBox="0 0 16 16"
   version="1.1"
   id="svg8"
   inkscape:version="0.92.2 (5c3e80d, 2017-08-06)"
   sodipodi:docname="7.svg">
  <defs
     id="defs2">
    <pattern
       y="0"
       x="0"
       height="6"
       width="6"
       patternUnits="userSpaceOnUse"
       id="EMFhbasepattern" />
  </defs>
  <sodipodi:namedview
     id="base"
     pagecolor="#ffffff"
     bordercolor="#666666"
     borderopacity="1.0"
     inkscape:pageopacity="0.0"
     inkscape:pageshadow="2"
     inkscape:zoom="5.6"
     inkscape:cx="19.246842"
     inkscape:cy="13.027816"
     inkscape:document-units="mm"
     inkscape:current-layer="layer1"
     showgrid="false"
     inkscape:window-width="1920"
     inkscape:window-height="1057"
     inkscape:window-x="1912"
     inkscape:window-y="-8"
     inkscape:window-maximized="1" />
  <metadata
     id="metadata5">
    <rdf:RDF>
      <cc:Work
         rdf:about="">
        <dc:format>image/svg+xml</dc:format>
        <dc:type
           rdf:resource="http://purl.org/dc/dcmitype/StillImage" />
        <dc:title></dc:title>
      </cc:Work>
    </rdf:RDF>
  </metadata>
  <g
     inkscape:label="Layer 1"
     inkscape:groupmode="layer"
     id="layer1"
     transform="translate(0,-281)">
    <g
       id="g47"
       transform="translate(-1.81978e-7,-1.6216486)">
      <path
         inkscape:connector-curvature="0"
         id="path230"
         style="fill:#e71c56;fill-opacity:1;fill-rule:evenodd;stroke:none;stroke-width:0.35277778"
         d="m 4.5324047,289.44515 c -0.0166,0.0247 -0.0349,0.0401 -0.0575,0.0623 -0.13568,0.13338 -0.25809,0.34508 -0.32339,0.5256 -0.0822,0.22719 -0.10848,0.54769 -0.10848,0.86018 -0.0672,0.006 -0.1706,0.0972 -0.20401,0.14552 -0.17339,0.25139 -0.11349,0.5764 0.16411,0.7233 -0.011,0.0229 -0.0187,0.1065 -0.0258,0.144 -0.0307,0.1638 -0.0547,0.26229 -0.10781,0.4215 -0.089,0.26649 -0.18627,0.47929 -0.3300999,0.71847 -0.0969,0.16111 -0.2395001,0.36361 -0.3583801,0.5105 -0.029,0.0359 -0.0559,0.0636 -0.0767,0.10302 0.0483,0.0722 0.37081,0.27209 0.4949801,0.32381 0.1931199,0.0804 0.1905,0.11377 0.37801,-0.0101 0.16732,-0.11061 0.2861,-0.22841 0.38202,-0.40691 0.17039,-0.3168 0.18309,-0.6827 0.18309,-1.0753 l -0.04,-0.7789 c 0.0829,-0.0222 0.18979,-0.21421 0.18979,-0.3296 0,-0.1269 0.004,-0.19911 -0.0738,-0.31581 -0.0409,-0.0611 -0.0876,-0.10449 -0.14598,-0.14358 10e-4,-0.0436 0.008,-0.0351 0.0101,-0.0798 0.0106,-0.21191 0.0214,-0.35962 0.091,-0.5781 0.0397,-0.12481 0.11091,-0.2788 0.18701,-0.3823 0.0152,-0.0206 0.0273,-0.0358 0.0438,-0.056 0.0168,-0.0206 0.0263,-0.0356 0.0449,-0.0549 0.0294,-0.0305 0.0641,-0.0679 0.0956,-0.0943 0.13032,-0.10908 0.17,-0.10002 0.38361,-0.18549 l 2.4539898,-0.99152 c 0.1076,-0.0429 0.20892,-0.10418 0.31521,-0.10418 0.18471,0 0.27929,0.2655 0.1162,0.3858 -0.0559,0.0412 -2.0846999,0.84109 -2.3916898,0.96379 -0.0517,0.0207 -0.12432,0.0552 -0.18122,0.0685 0.0232,0.0316 0.26211,0.0991 0.3058199,0.11359 l 1.5654899,0.53182 c 0.10732,0.0358 0.211,0.0663 0.31429,0.10498 0.0474,0.0178 0.10231,0.035 0.1542,0.0556 0.20662,0.0819 0.23632,0.0317 0.4753,-0.0482 l 1.5078,-0.51938 c 0.8987104,-0.29951 1.8310304,-0.6447 2.7265204,-0.93871 0.0825,-0.0271 0.21579,-0.0903 0.20461,-0.19431 -0.015,-0.13991 -0.37543,-0.22959 -0.5268,-0.2801 -0.7995,-0.26649 -1.61573,-0.56688 -2.4142004,-0.83139 l -1.21081,-0.41702 c -0.0623,-0.0212 -0.56402,-0.20338 -0.61549,-0.20338 h -10e-5 c -0.10471,0 -0.1324,0.0215 -0.23111,0.0585 -0.0658,0.0246 -0.127,0.0396 -0.19399,0.0656 -0.12972,0.0502 -0.25383,0.0872 -0.38753,0.1318 -1.1588699,0.3864 -2.3230798,0.79438 -3.4828998,1.18089 -0.13649,0.0455 -0.48059,0.12781 -0.52638,0.2534 -0.0649,0.17759 0.3091,0.25939 0.44908,0.30589 0.13,0.0431 0.25471,0.0883 0.38693,0.13229 0.0636,0.0212 0.12619,0.0421 0.19477,0.0649 0.0368,0.0123 0.0646,0.0211 0.0961,0.0337 0.0295,0.0119 0.0622,0.0269 0.0999,0.03" />
      <path
         inkscape:connector-curvature="0"
         id="path232"
         style="fill:#e71c56;fill-opacity:1;fill-rule:evenodd;stroke:none;stroke-width:0.35277778"
         d="m 4.9840051,290.23403 v 0.70912 c 0.0507,0.0135 0.13081,0.1501 0.15349,0.19607 0.10351,0.21012 0.0861,0.51823 -0.0435,0.71282 -0.0556,0.0835 -0.1,0.0822 0.0116,0.2478 0.0664,0.0983 0.3169,0.2082 0.42482,0.25431 0.1087899,0.0465 0.20348,0.0893 0.3166899,0.13279 0.1895801,0.0727 0.4937101,0.16489 0.6991001,0.20958 0.6087898,0.13261 1.2646998,0.1832 1.8949098,0.11582 0.46379,-0.0496 0.87347,-0.12192 1.3102801,-0.26762 0.266,-0.0887 0.5158,-0.1784 0.75191,-0.29668 0.11561,-0.0579 0.24381,-0.10181 0.33539,-0.19389 0.0842,-0.0846 0.17731,-0.1881 0.17731,-0.352 v -1.50802 c -0.0644,0.001 -1.49762,0.51132 -1.6915,0.57552 l -1.3171,0.4512 c -0.0984,0.0212 -0.2426,-0.0551 -0.3756,-0.0992 -0.1251,-0.0415 -0.257,-0.0858 -0.38209,-0.12731 -0.12552,-0.0417 -0.24243,-0.0841 -0.37201,-0.12729 l -0.3795198,-0.12992 c -0.25717,-0.085 -0.5008002,-0.17029 -0.75388,-0.25467 -0.0995,-0.0331 -0.7097201,-0.24723 -0.7603101,-0.24843" />
    </g>
  </g>
</svg>
