<?xml version="1.0" encoding="UTF-8"?>
<!DOCTYPE svg PUBLIC "-//W3C//DTD SVG 1.1//EN" "http://www.w3.org/Graphics/SVG/1.1/DTD/svg11.dtd">
<!-- Creator: CorelDRAW 2018 (64-Bit Evaluation Version) -->
<svg xmlns="http://www.w3.org/2000/svg" xml:space="preserve" width="12.6138mm" height="12.6138mm" version="1.1" style="shape-rendering:geometricPrecision; text-rendering:geometricPrecision; image-rendering:optimizeQuality; fill-rule:evenodd; clip-rule:evenodd"
viewBox="0 0 1261.38 1261.38"
 xmlns:xlink="http://www.w3.org/1999/xlink">
 <defs>
  <style type="text/css">
   <![CDATA[
    .fil0 {fill:#C59428;fill-rule:nonzero}
   ]]>
  </style>
 </defs>
 <g id="Layer_x0020_1">
  <metadata id="CorelCorpID_0Corel-Layer"/>
  <g id="_2247002310976">
   <path class="fil0" d="M622.6 926.15c82.58,0 157.34,-33.47 211.46,-87.58 54.11,-54.12 87.59,-128.89 87.59,-211.47 0,-82.58 -33.48,-157.34 -87.59,-211.46 -54.12,-54.11 -128.88,-87.59 -211.46,-87.59 -82.58,0 -157.35,33.48 -211.47,87.59 -54.11,54.12 -87.58,128.88 -87.58,211.46 0,82.58 33.47,157.35 87.58,211.47 54.12,54.11 128.89,87.58 211.47,87.58zm98.95 231.17c-15.85,15.78 -34.43,33.41 -53.77,49.79 -20.05,16.97 -41.08,32.78 -61.22,44.3l-17.43 9.97 -14.92 -13.45c-108.4,-97.66 -183.44,-200.3 -229.61,-304.03 -28.14,-63.22 -45.53,-126.74 -53.18,-189.71 -15.16,-39.46 -23.46,-82.3 -23.46,-127.09 0,-93.34 36.07,-178.26 95.02,-241.59 -7.64,3.06 -15.28,6.28 -22.92,9.68 -91.81,40.87 -183.21,106.55 -271.21,200.73 8.16,11.95 17.7,24.14 27.76,36.03 15.48,18.28 32.01,35.7 46.75,50.51l-39.3 39.09c-15.78,-15.86 -33.41,-34.43 -49.79,-53.77 -16.97,-20.05 -32.78,-41.09 -44.3,-61.22l-9.97 -17.43 13.44 -14.92c97.67,-108.4 200.31,-183.44 304.04,-229.61 63.61,-28.31 127.52,-45.74 190.87,-53.33 35.85,-12.19 74.28,-18.8 114.25,-18.8 97.93,0 186.59,39.69 250.76,103.87 4.25,4.24 8.38,8.59 12.4,13.04 -5.74,-16.45 -12.26,-32.89 -19.57,-49.32 -40.86,-91.81 -106.55,-183.21 -200.73,-271.21 -11.95,8.16 -24.15,17.7 -36.03,27.76 -18.29,15.48 -35.7,32.01 -50.51,46.75l-39.09 -39.3c15.86,-15.78 34.43,-33.41 53.77,-49.79 20.05,-16.97 41.08,-32.78 61.22,-44.3l17.43 -9.97 14.92 13.44c108.4,97.67 183.44,200.31 229.61,304.04 39.52,88.78 57.83,178.16 57.77,265.78 1.77,14.37 2.69,29 2.69,43.84 0,97.93 -39.7,186.59 -103.88,250.77 -3.93,3.93 -7.96,7.77 -12.07,11.52 20.02,-6.59 40.04,-14.31 60.03,-23.2 91.81,-40.87 183.21,-106.55 271.21,-200.73 -8.16,-11.95 -17.7,-24.15 -27.76,-36.03 -15.48,-18.29 -32.01,-35.7 -46.75,-50.52l39.3 -39.08c15.78,15.85 33.41,34.42 49.79,53.77 16.97,20.05 32.78,41.08 44.3,61.22l9.97 17.42 -13.44 14.93c-97.67,108.4 -200.31,183.44 -304.04,229.61 -83.08,36.97 -166.67,55.39 -248.85,57.55 -23.39,4.85 -47.62,7.41 -72.45,7.41 -93.37,0 -178.31,-36.08 -241.64,-95.07 4.36,11.56 9.1,23.11 14.23,34.65 40.87,91.81 106.55,183.21 200.73,271.21 11.95,-8.16 24.14,-17.7 36.03,-27.77 18.29,-15.47 35.7,-32 50.51,-46.74l39.09 39.3z"/>
   <path class="fil0" d="M622.6 840.52c58.93,0 112.29,-23.89 150.91,-62.51 38.62,-38.62 62.5,-91.97 62.5,-150.91 0,-58.93 -23.88,-112.29 -62.5,-150.91 -38.62,-38.62 -91.98,-62.5 -150.91,-62.5 -58.94,0 -112.29,23.88 -150.91,62.5 -38.62,38.62 -62.51,91.98 -62.51,150.91 0,58.94 23.89,112.29 62.51,150.91 38.62,38.62 91.97,62.51 150.91,62.51zm175.47 -37.94c-44.91,44.91 -106.95,72.68 -175.47,72.68 -68.53,0 -130.57,-27.77 -175.48,-72.68 -44.9,-44.91 -72.68,-106.95 -72.68,-175.48 0,-68.52 27.78,-130.56 72.68,-175.47 44.91,-44.91 106.95,-72.69 175.48,-72.69 68.52,0 130.56,27.78 175.47,72.69 44.91,44.91 72.69,106.95 72.69,175.47 0,68.53 -27.78,130.57 -72.69,175.48z"/>
   <path class="fil0" d="M622.6 746.83c33.06,0 62.99,-13.4 84.66,-35.07 21.66,-21.66 35.06,-51.59 35.06,-84.66 0,-33.06 -13.4,-62.99 -35.06,-84.66 -21.67,-21.66 -51.6,-35.06 -84.66,-35.06 -33.07,0 -63,13.4 -84.66,35.06 -21.67,21.67 -35.07,51.6 -35.07,84.66 0,33.07 13.4,63 35.07,84.66 21.66,21.67 51.59,35.07 84.66,35.07zm99.39 -20.33c-25.43,25.44 -60.58,41.18 -99.39,41.18 -38.82,0 -73.97,-15.74 -99.4,-41.18 -25.44,-25.43 -41.18,-60.58 -41.18,-99.4 0,-38.81 15.74,-73.96 41.18,-99.4 25.43,-25.43 60.58,-41.17 99.4,-41.17 38.81,0 73.96,15.74 99.39,41.17 25.44,25.44 41.18,60.59 41.18,99.4 0,38.82 -15.74,73.97 -41.18,99.4z"/>
  </g>
 </g>
</svg>
